<svg width="124" height="92" viewBox="0 0 124 92" fill="none" xmlns="http://www.w3.org/2000/svg">
<path d="M8.77637 75.6661V64.5174H11.1613V68.5027H12.2936V64.5174H14.6785V75.6661H12.2936V70.6106H11.1613V75.6661H8.77637Z" fill="#233205"/>
<path d="M18.8006 75.7706C17.8428 75.7706 17.1099 75.5003 16.6019 74.9634C16.0939 74.4265 15.8418 73.6482 15.8418 72.6285V67.3316C15.8418 66.3767 16.0939 65.6524 16.5941 65.1588C17.0944 64.6651 17.8312 64.4165 18.8006 64.4165C19.7701 64.4165 20.503 64.6651 21.0072 65.1588C21.5113 65.6524 21.7595 66.3767 21.7595 67.3316V72.6285C21.7595 73.6446 21.5074 74.4229 20.9994 74.9634C20.4914 75.5039 19.7585 75.7706 18.8006 75.7706ZM18.82 73.7167C19.1846 73.7167 19.3668 73.3888 19.3668 72.7366V67.2956C19.3668 66.7478 19.1884 66.4704 18.8355 66.4704C18.4361 66.4704 18.2345 66.7515 18.2345 67.3136V72.7474C18.2345 73.0933 18.281 73.3419 18.3702 73.4933C18.4594 73.6446 18.6106 73.7167 18.82 73.7167Z" fill="#233205"/>
<path d="M22.9238 75.6663V64.5176H26.604C27.2167 64.5176 27.682 64.6473 27.9961 64.9067C28.3102 65.1662 28.5196 65.5301 28.6282 65.9949C28.7368 66.4598 28.7872 67.0111 28.7872 67.6381C28.7872 68.265 28.7058 68.7335 28.539 69.0938C28.3723 69.4541 28.0621 69.71 27.6006 69.8469C27.9767 69.919 28.2443 70.0919 28.3956 70.3694C28.5468 70.6468 28.6244 71.0036 28.6244 71.4432V75.6626H26.2588V71.299C26.2588 70.9747 26.189 70.7729 26.0455 70.6937C25.9021 70.6144 25.6733 70.5748 25.3553 70.5748V75.6626H22.9277L22.9238 75.6663ZM25.363 68.6506H25.9408C26.2743 68.6506 26.4372 68.3155 26.4372 67.6453C26.4372 67.2093 26.4023 66.9246 26.3286 66.7913C26.255 66.658 26.1192 66.5895 25.9214 66.5895H25.363V68.6542V68.6506Z" fill="#233205"/>
<path d="M29.6631 75.6661V64.5174H31.9821V75.6661H29.6631Z" fill="#233205"/>
<path d="M32.8154 75.6661V73.641L35.561 66.5713H33.0791V64.5174H38.0894V66.4668L35.2934 73.6122H37.973V75.6661H32.8115H32.8154Z" fill="#233205"/>
<path d="M41.9129 75.7706C40.9551 75.7706 40.2222 75.5003 39.7142 74.9634C39.2062 74.4265 38.9541 73.6482 38.9541 72.6285V67.3316C38.9541 66.3767 39.2062 65.6524 39.7064 65.1588C40.2067 64.6651 40.9435 64.4165 41.9129 64.4165C42.8824 64.4165 43.6153 64.6651 44.1195 65.1588C44.6236 65.6524 44.8718 66.3767 44.8718 67.3316V72.6285C44.8718 73.6446 44.6197 74.4229 44.1117 74.9634C43.6037 75.5039 42.8708 75.7706 41.9129 75.7706ZM41.9323 73.7167C42.2969 73.7167 42.4791 73.3888 42.4791 72.7366V67.2956C42.4791 66.7478 42.3007 66.4704 41.9478 66.4704C41.5484 66.4704 41.3468 66.7515 41.3468 67.3136V72.7474C41.3468 73.0933 41.3933 73.3419 41.4825 73.4933C41.5717 73.6446 41.7229 73.7167 41.9323 73.7167Z" fill="#233205"/>
<path d="M46.0361 75.6663V64.5176H48.5025L49.6077 69.8577V64.5176H51.9267V75.6663H49.5805L48.3823 70.0919V75.6663H46.0361Z" fill="#233205"/>
<path d="M59.4447 75.7706C58.576 75.7706 57.878 75.5183 57.3467 75.0175C56.8155 74.5166 56.5518 73.8104 56.5518 72.9095V67.7676C56.5518 66.6866 56.7806 65.8578 57.242 65.2849C57.7035 64.712 58.4558 64.4237 59.4951 64.4237C60.0613 64.4237 60.5693 64.521 61.0114 64.7156C61.4534 64.9102 61.8024 65.1984 62.0584 65.5876C62.3143 65.9767 62.4384 66.4596 62.4384 67.0469V68.9711H60.0535V67.3244C60.0535 66.9893 60.007 66.7659 59.9178 66.6506C59.8286 66.5353 59.6851 66.4776 59.4951 66.4776C59.274 66.4776 59.1228 66.5533 59.0452 66.701C58.9677 66.8487 58.9289 67.0505 58.9289 67.2992V72.8807C58.9289 73.1906 58.9793 73.4068 59.0763 73.5329C59.1732 73.659 59.3128 73.7239 59.4951 73.7239C59.7006 73.7239 59.8441 73.6446 59.9294 73.4897C60.0147 73.3347 60.0574 73.1293 60.0574 72.8807V70.8737H62.4694V72.9816C62.4694 73.9617 62.2019 74.6716 61.6706 75.1148C61.1393 75.558 60.3948 75.7778 59.4408 75.7778L59.4447 75.7706Z" fill="#233205"/>
<path d="M66.328 75.7706C65.3701 75.7706 64.6372 75.5003 64.1292 74.9634C63.6212 74.4265 63.3691 73.6482 63.3691 72.6285V67.3316C63.3691 66.3767 63.6212 65.6524 64.1215 65.1588C64.6217 64.6651 65.3585 64.4165 66.328 64.4165C67.2975 64.4165 68.0304 64.6651 68.5345 65.1588C69.0386 65.6524 69.2868 66.3767 69.2868 67.3316V72.6285C69.2868 73.6446 69.0348 74.4229 68.5268 74.9634C68.0188 75.5039 67.2858 75.7706 66.328 75.7706ZM66.3474 73.7167C66.7119 73.7167 66.8942 73.3888 66.8942 72.7366V67.2956C66.8942 66.7478 66.7158 66.4704 66.3629 66.4704C65.9635 66.4704 65.7618 66.7515 65.7618 67.3136V72.7474C65.7618 73.0933 65.8083 73.3419 65.8975 73.4933C65.9867 73.6446 66.138 73.7167 66.3474 73.7167Z" fill="#233205"/>
<path d="M70.4502 75.6661V64.5174H74.1032L75.1114 71.3133L76.1119 64.5174H79.7998V75.6661H77.6049V67.6343L76.2283 75.6661H74.076L72.6179 67.6343V75.6661H70.4502Z" fill="#233205"/>
<path d="M81.0605 75.6663V64.5176H84.2288C84.8919 64.5176 85.4193 64.6545 85.8071 64.9284C86.1949 65.2022 86.4741 65.595 86.6409 66.0994C86.8076 66.6039 86.8929 67.2093 86.8929 67.9119C86.8929 68.6146 86.8231 69.1767 86.6835 69.6775C86.5439 70.1784 86.2918 70.564 85.9312 70.8414C85.5706 71.1189 85.0587 71.2522 84.3956 71.2522H83.4222V75.6663H81.0644H81.0605ZM83.4183 69.2523H83.554C84 69.2523 84.2715 69.137 84.3723 68.9028C84.4731 68.6686 84.5235 68.3299 84.5235 67.8759C84.5235 67.4543 84.4731 67.1264 84.3762 66.8958C84.2792 66.6652 84.0465 66.5499 83.6859 66.5499H83.4183V69.2487V69.2523Z" fill="#233205"/>
<path d="M90.7128 75.7706C89.7549 75.7706 89.022 75.5003 88.514 74.9634C88.006 74.4265 87.7539 73.6482 87.7539 72.6285V67.3316C87.7539 66.3767 88.006 65.6524 88.5062 65.1588C89.0065 64.6651 89.7433 64.4165 90.7128 64.4165C91.6822 64.4165 92.4152 64.6651 92.9193 65.1588C93.4234 65.6524 93.6716 66.3767 93.6716 67.3316V72.6285C93.6716 73.6446 93.4195 74.4229 92.9115 74.9634C92.4035 75.5039 91.6706 75.7706 90.7128 75.7706ZM90.7321 73.7167C91.0967 73.7167 91.2789 73.3888 91.2789 72.7366V67.2956C91.2789 66.7478 91.1005 66.4704 90.7477 66.4704C90.3482 66.4704 90.1466 66.7515 90.1466 67.3136V72.7474C90.1466 73.0933 90.1931 73.3419 90.2823 73.4933C90.3715 73.6446 90.5227 73.7167 90.7321 73.7167Z" fill="#233205"/>
<path d="M97.6815 75.7706C96.5879 75.7706 95.7968 75.5183 95.3121 75.0103C94.8273 74.5022 94.5869 73.6987 94.5869 72.5924V71.5042H96.9602V72.8987C96.9602 73.1545 97.0028 73.3563 97.0882 73.5041C97.1735 73.6518 97.317 73.7239 97.5264 73.7239C97.7358 73.7239 97.8948 73.6662 97.9801 73.5473C98.0654 73.4284 98.1081 73.2338 98.1081 72.9636C98.1081 72.6213 98.0732 72.3366 97.9995 72.106C97.9258 71.8754 97.8017 71.6556 97.6194 71.4466C97.4372 71.2376 97.1929 70.9926 96.8749 70.7151L95.7968 69.7638C94.9941 69.0576 94.5908 68.2504 94.5908 67.346C94.5908 66.4416 94.8273 65.6705 95.3043 65.1732C95.7813 64.6759 96.4677 64.4273 97.3674 64.4273C98.4687 64.4273 99.2482 64.7012 99.7096 65.2453C100.171 65.7894 100.4 66.6181 100.4 67.728H97.9607V66.9604C97.9607 66.8091 97.9142 66.6902 97.8211 66.6073C97.728 66.5244 97.6 66.4812 97.4411 66.4812C97.251 66.4812 97.1114 66.5316 97.0222 66.6289C96.933 66.7262 96.8904 66.8559 96.8904 67.0109C96.8904 67.1658 96.9369 67.3352 97.0261 67.519C97.1153 67.7027 97.2976 67.9081 97.5651 68.1459L98.9496 69.3819C99.2249 69.6269 99.4808 69.8863 99.7135 70.1566C99.9462 70.4268 100.132 70.7439 100.272 71.1079C100.412 71.4718 100.481 71.9078 100.481 72.4303C100.481 73.4788 100.272 74.2968 99.857 74.8913C99.4421 75.4859 98.7169 75.7814 97.6854 75.7814L97.6815 75.7706Z" fill="#233205"/>
<path d="M101.362 75.6663V64.5176H103.681V75.6663H101.362Z" fill="#233205"/>
<path d="M105.857 75.6663V66.658H104.434V64.5176H109.684V66.658H108.261V75.6663H105.861H105.857Z" fill="#233205"/>
<path d="M110.544 75.6661V64.5174H115.345V66.6722H112.987V68.845H115.252V70.9421H112.987V73.4933H115.504V75.6661H110.548H110.544Z" fill="#233205"/>
<path d="M8.76755 79.5541H9.36087V82.2097H10.9314V82.6746H8.76367V79.5577L8.76755 79.5541Z" fill="#233205"/>
<path d="M13.0719 79.5541L14.305 82.6709H13.669L13.4054 81.9575H12.0403L11.7805 82.6709H11.1445L12.3777 79.5541H13.0757H13.0719ZM12.211 81.4963H13.2347L12.7228 80.0946L12.211 81.4963Z" fill="#233205"/>
<path d="M18.8189 82.2061L19.2688 82.6565L18.8771 82.9953L18.4234 82.5412C18.2024 82.6601 17.9387 82.7286 17.6362 82.7286C16.6628 82.7286 16.0928 82.026 16.0928 81.1179C16.0928 80.2099 16.6628 79.5072 17.6362 79.5072C18.6095 79.5072 19.1796 80.2099 19.1796 81.1179C19.1796 81.5467 19.0516 81.9251 18.8189 82.2097V82.2061ZM17.6323 79.9721C17.0584 79.9721 16.6938 80.4117 16.6938 81.1107C16.6938 81.8098 17.0584 82.2494 17.6323 82.2494C17.7874 82.2494 17.9231 82.2169 18.0434 82.1593L17.5819 81.6909L17.9736 81.3521L18.4079 81.7917C18.5087 81.608 18.5669 81.3774 18.5669 81.1071C18.5669 80.4081 18.2024 79.9685 17.6284 79.9685L17.6323 79.9721Z" fill="#233205"/>
<path d="M19.7773 81.435V79.5541H20.3707V81.435C20.3707 81.9575 20.6111 82.253 21.1618 82.253C21.7124 82.253 21.9529 81.9539 21.9529 81.435V79.5541H22.5462V81.435C22.5462 82.2926 21.98 82.725 21.1618 82.725C20.3435 82.725 19.7773 82.2926 19.7773 81.435Z" fill="#233205"/>
<path d="M24.8453 79.5541L26.0785 82.6709H25.4425L25.1788 81.9575H23.8138L23.5539 82.6709H22.918L24.1511 79.5541H24.8492H24.8453ZM23.9805 81.4963H25.0043L24.4924 80.0946L23.9805 81.4963Z" fill="#233205"/>
<path d="M26.5586 79.5542H27.1519V82.2099H28.7224V82.6747H26.5547V79.5578L26.5586 79.5542Z" fill="#233205"/>
<path d="M29.8326 79.5541V82.6709H29.2393V79.5541H29.8326Z" fill="#233205"/>
<path d="M31.3442 80.0191H30.3359V79.5542H32.9419V80.0191H31.9375V82.6747H31.3442V80.0191Z" fill="#233205"/>
<path d="M33.4307 79.5541H35.5984V80.0189H34.0279V80.8369H35.4317V81.3017H34.0279V82.2097H35.6449V82.6746H33.4345V79.5577L33.4307 79.5541Z" fill="#233205"/>
<path d="M37.6895 82.6711V79.5542H38.8489C39.8572 79.5542 40.4583 80.1704 40.4583 81.1145C40.4583 82.0585 39.8533 82.6747 38.8489 82.6747H37.6895V82.6711ZM38.2828 82.2099H38.8102C39.4578 82.2099 39.8533 81.8279 39.8533 81.1145C39.8533 80.401 39.4539 80.0191 38.8102 80.0191H38.2828V82.2099Z" fill="#233205"/>
<path d="M41.0596 79.5542H43.2273V80.0191H41.6568V80.837H43.0606V81.3018H41.6568V82.2099H43.2739V82.6747H41.0634V79.5578L41.0596 79.5542Z" fill="#233205"/>
<path d="M45.3164 79.5541H45.9097V82.2097H47.4803V82.6746H45.3125V79.5577L45.3164 79.5541Z" fill="#233205"/>
<path d="M49.4316 79.5541H50.025V80.7936H51.5412V79.5541H52.1345V82.6709H51.5412V81.2548H50.025V82.6709H49.4316V79.5541Z" fill="#233205"/>
<path d="M54.2788 82.725C53.3054 82.725 52.7354 82.0224 52.7354 81.1143C52.7354 80.2063 53.3054 79.5036 54.2788 79.5036C55.2521 79.5036 55.8222 80.2063 55.8222 81.1143C55.8222 82.0224 55.2521 82.725 54.2788 82.725ZM54.2788 79.9721C53.7048 79.9721 53.3403 80.4117 53.3403 81.1107C53.3403 81.8098 53.7048 82.2494 54.2788 82.2494C54.8527 82.2494 55.2172 81.8098 55.2172 81.1107C55.2172 80.4117 54.8527 79.9721 54.2788 79.9721Z" fill="#233205"/>
<path d="M58.1766 81.3593L59.0763 82.6745H58.4248L57.6066 81.4314H57.0171V82.6745H56.4238V79.5576H57.595C58.4054 79.5576 58.8747 79.8711 58.8747 80.4981C58.8747 80.9377 58.6265 81.2404 58.1805 81.3629L58.1766 81.3593ZM57.595 80.0189H57.0133V80.9665H57.595C58.0603 80.9665 58.2658 80.8224 58.2658 80.4945C58.2658 80.1666 58.0603 80.0189 57.595 80.0189Z" fill="#233205"/>
<path d="M60.1812 79.5541V82.6709H59.5879V79.5541H60.1812Z" fill="#233205"/>
<path d="M62.4572 80.0227H60.8363V79.5542H63.1746V79.9938L61.4645 82.2027H63.2251V82.6711H60.7471V82.2315L62.4572 80.0227Z" fill="#233205"/>
<path d="M65.0981 82.725C64.1247 82.725 63.5547 82.0224 63.5547 81.1143C63.5547 80.2063 64.1247 79.5036 65.0981 79.5036C66.0714 79.5036 66.6415 80.2063 66.6415 81.1143C66.6415 82.0224 66.0714 82.725 65.0981 82.725ZM65.0981 79.9721C64.5242 79.9721 64.1596 80.4117 64.1596 81.1107C64.1596 81.8098 64.5242 82.2494 65.0981 82.2494C65.672 82.2494 66.0365 81.8098 66.0365 81.1107C66.0365 80.4117 65.672 79.9721 65.0981 79.9721Z" fill="#233205"/>
<path d="M67.2422 79.5541H67.8161L69.3595 81.7557V79.5541H69.9528V82.6709H69.3789L67.8355 80.4693V82.6709H67.2422V79.5541Z" fill="#233205"/>
<path d="M71.4458 80.0189H70.4375V79.5541H73.0435V80.0189H72.0391V82.6746H71.4458V80.0189Z" fill="#233205"/>
<path d="M74.9478 79.5541L76.181 82.6709H75.545L75.2813 81.9575H73.9163L73.6565 82.6709H73.0205L74.2537 79.5541H74.9517H74.9478ZM74.0831 81.4963H75.1068L74.5949 80.0946L74.0831 81.4963Z" fill="#233205"/>
<path d="M76.666 79.5541H77.2593V82.2097H78.8299V82.6746H76.6621V79.5577L76.666 79.5541Z" fill="#233205"/>
<path d="M82.4332 79.5542L83.6664 82.6711H83.0304L82.7667 81.9576H81.4017L81.1418 82.6711H80.5059L81.739 79.5542H82.4371H82.4332ZM81.5684 81.4964H82.5922L82.0803 80.0947L81.5684 81.4964Z" fill="#233205"/>
<path d="M85.6123 79.5541H86.2056V82.2097H87.7762V82.6746H85.6084V79.5577L85.6123 79.5541Z" fill="#233205"/>
<path d="M89.9166 79.5541L91.1498 82.6709H90.5138L90.2501 81.9575H88.8851L88.6252 82.6709H87.9893L89.2224 79.5541H89.9205H89.9166ZM89.0518 81.4963H90.0756L89.5637 80.0946L89.0518 81.4963Z" fill="#233205"/>
<path d="M94.3995 82.0441L95.3419 79.5542H95.9779L94.7447 82.6711H94.0467L92.8135 79.5542H93.4495L94.3918 82.0441H94.3995Z" fill="#233205"/>
<path d="M96.4668 79.5542H98.6346V80.0191H97.064V80.837H98.4678V81.3018H97.064V82.2099H98.6811V82.6747H96.4707V79.5578L96.4668 79.5542Z" fill="#233205"/>
<path d="M101.016 81.3593L101.915 82.6746H101.264L100.445 81.4314H99.856V82.6746H99.2627V79.5577H100.434C101.244 79.5577 101.714 79.8712 101.714 80.4981C101.714 80.9378 101.465 81.2404 101.019 81.3629L101.016 81.3593ZM100.434 80.0189H99.8521V80.9666H100.434C100.899 80.9666 101.105 80.8224 101.105 80.4945C101.105 80.1666 100.899 80.0189 100.434 80.0189Z" fill="#233205"/>
<path d="M103.128 80.0189H102.12V79.5541H104.726V80.0189H103.722V82.6746H103.128V80.0189Z" fill="#233205"/>
<path d="M105.836 79.5541V82.6709H105.242V79.5541H105.836Z" fill="#233205"/>
<path d="M108.054 79.5C108.678 79.5 109.159 79.7667 109.419 80.1775L108.93 80.4225C108.713 80.1198 108.442 79.9721 108.077 79.9721C107.503 79.9721 107.061 80.3684 107.061 81.1107C107.061 81.853 107.503 82.2494 108.077 82.2494C108.442 82.2494 108.713 82.1016 108.93 81.7989L109.419 82.044C109.159 82.4548 108.674 82.7214 108.054 82.7214C107.092 82.7214 106.456 82.0728 106.456 81.1107C106.456 80.1486 107.088 79.5 108.054 79.5Z" fill="#233205"/>
<path d="M111.625 79.5542L112.858 82.6711H112.222L111.958 81.9576H110.593L110.333 82.6711H109.697L110.93 79.5542H111.628H111.625ZM110.764 81.4964H111.787L111.276 80.0947L110.764 81.4964Z" fill="#233205"/>
<path d="M113.344 79.5542H113.937V82.2099H115.508V82.6747H113.34V79.5578L113.344 79.5542Z" fill="#233205"/>
<path d="M34.168 78.9271L34.6566 78.3506H35.4322L34.3115 79.1577L34.168 78.9271Z" fill="#233205"/>
<path d="M48.4928 79.7775L48.3105 79.064L48.7953 78.4983L48.7798 79.8171L48.4928 79.7775Z" fill="#233205"/>
<path d="M82.231 78.9883L81.8704 78.3361L81.1064 78.1992L82.0449 79.1901L82.231 78.9883Z" fill="#233205"/>
<path d="M69.4798 52.8934H77.4877V41.5213H83.1766V57.3615H63.5078V14.8351C70.2282 17.9556 76.778 20.9932 83.3123 24.0272V36.401H77.8212V27.0684C75.0019 25.7315 72.396 24.4956 69.4798 23.1155V52.8934Z" fill="#233205"/>
<path d="M54.7091 41.5249H46.2785V57.5417H40.6904V24.0308C42.2455 23.2921 44.0022 22.4561 46.1971 21.4148V36.3649H54.4803V17.6529C56.4658 16.6944 58.2263 15.8476 60.3825 14.8063V57.4876H54.7129V41.5249H54.7091Z" fill="#233205"/>
<path d="M72.0781 27.4503C73.2066 27.9728 74.0326 28.3511 74.9323 28.7691V50.8863C74.1489 50.8971 73.1252 50.9079 72.0781 50.8863V27.4503Z" fill="#233205"/>
<path d="M51.9249 18.8961C51.9249 24.3227 51.8707 29.3097 51.8707 34.4048C50.8818 34.4228 50.0946 34.4228 49.0049 34.4048C49.0049 29.5331 49.0049 24.9065 49.0049 20.1032C49.8813 19.7393 50.7887 19.3645 51.9211 18.8961H51.9249Z" fill="#233205"/>
<path d="M49.1016 43.6979H51.8316C51.8316 48.2741 51.8432 52.8323 51.8432 57.5707H49.1016C49.1016 52.7638 49.1016 48.411 49.1016 43.6979Z" fill="#233205"/>
<path d="M83.3125 18.3231V21.5697L62.0616 11.3867L40.6904 21.7427V18.4925L62.0538 8.14014L83.3125 18.3231Z" fill="#233205"/>
</svg>
