<svg width="178" height="178" viewBox="0 0 178 178" fill="none" xmlns="http://www.w3.org/2000/svg">
<g filter="url(#filter0_d_1_224)">
<circle cx="89" cy="85" r="37" fill="#94B316"/>
</g>
<path d="M80.25 78.75C80.25 76.4294 81.1719 74.2038 82.8128 72.5628C84.4538 70.9219 86.6794 70 89 70C91.3206 70 93.5462 70.9219 95.1872 72.5628C96.8281 74.2038 97.75 76.4294 97.75 78.75C97.75 79.0815 97.8817 79.3995 98.1161 79.6339C98.3505 79.8683 98.6685 80 99 80C99.3315 80 99.6495 79.8683 99.8839 79.6339C100.118 79.3995 100.25 79.0815 100.25 78.75C100.25 76.8314 99.759 74.9448 98.8242 73.2693C97.8893 71.5939 96.5415 70.1854 94.9089 69.1777C93.2762 68.17 91.413 67.5966 89.4963 67.5119C87.5796 67.4273 85.6731 67.8343 83.9579 68.6941C82.2428 69.554 80.7761 70.8382 79.6973 72.4247C78.6184 74.0112 77.9631 75.8473 77.7939 77.7584C77.6246 79.6695 77.9469 81.5922 78.7301 83.3436C79.5133 85.095 80.7315 86.6171 82.2687 87.765C83.587 88.7497 85.1051 89.4333 86.7163 89.7675C86.94 90.2695 87.323 90.6837 87.806 90.9462C88.2889 91.2086 88.8448 91.3046 89.3878 91.2192C89.9307 91.1339 90.4304 90.872 90.8096 90.4741C91.1887 90.0762 91.4261 89.5644 91.4852 89.018C91.5442 88.4715 91.4215 87.9209 91.136 87.4512C90.8506 86.9815 90.4183 86.619 89.9061 86.4197C89.3939 86.2204 88.8303 86.1954 88.3025 86.3487C87.7747 86.502 87.3121 86.8249 86.9862 87.2675C85.0682 86.8139 83.3595 85.7261 82.1369 84.1802C80.9143 82.6343 80.2495 80.7209 80.25 78.75ZM81.5 78.75C81.5005 77.3702 81.8816 76.0174 82.6014 74.8402C83.3211 73.6631 84.3517 72.7073 85.5796 72.078C86.8075 71.4488 88.1852 71.1705 89.5611 71.2737C90.937 71.3769 92.2578 71.8577 93.378 72.6631C94.4983 73.4685 95.3747 74.5674 95.9108 75.8388C96.4469 77.1101 96.6218 78.5047 96.4164 79.8691C96.211 81.2335 95.6333 82.5148 94.7467 83.572C93.8601 84.6292 92.699 85.4213 91.3913 85.8613C90.7187 85.3046 89.873 85 89 85C88.0913 85 87.2587 85.3238 86.6087 85.8613C85.1197 85.3604 83.8255 84.4045 82.9089 83.1286C81.9923 81.8526 81.4994 80.3211 81.5 78.75ZM89 92.5C89.6001 92.5003 90.1915 92.3566 90.7245 92.081C91.2576 91.8053 91.7167 91.4058 92.0633 90.9159C92.4099 90.426 92.6338 89.8601 92.7163 89.2657C92.7989 88.6713 92.7375 88.0658 92.5375 87.5H99.625C100.785 87.5 101.898 87.9609 102.719 88.7814C103.539 89.6019 104 90.7147 104 91.875V92.5C104 95.4913 102.096 98.0213 99.3938 99.7413C96.6763 101.471 92.9975 102.5 89 102.5C85.0025 102.5 81.325 101.471 78.6062 99.7413C75.9038 98.0213 74 95.4913 74 92.5V91.875C74 90.7147 74.4609 89.6019 75.2814 88.7814C76.1019 87.9609 77.2147 87.5 78.375 87.5H80.0738C81.6724 89.1324 83.6879 90.2953 85.9012 90.8625C86.5762 91.8513 87.7137 92.5 89 92.5Z" fill="white"/>
<defs>
<filter id="filter0_d_1_224" x="0.900002" y="0.900002" width="176.2" height="176.2" filterUnits="userSpaceOnUse" color-interpolation-filters="sRGB">
<feFlood flood-opacity="0" result="BackgroundImageFix"/>
<feColorMatrix in="SourceAlpha" type="matrix" values="0 0 0 0 0 0 0 0 0 0 0 0 0 0 0 0 0 0 127 0" result="hardAlpha"/>
<feOffset dy="4"/>
<feGaussianBlur stdDeviation="25.55"/>
<feComposite in2="hardAlpha" operator="out"/>
<feColorMatrix type="matrix" values="0 0 0 0 0.580392 0 0 0 0 0.701961 0 0 0 0 0.0862745 0 0 0 0.3 0"/>
<feBlend mode="normal" in2="BackgroundImageFix" result="effect1_dropShadow_1_224"/>
<feBlend mode="normal" in="SourceGraphic" in2="effect1_dropShadow_1_224" result="shape"/>
</filter>
</defs>
</svg>
